# xmcd
#
# Track frame offsets:
#	150
#	12912
#	27057
#	38322
#	50187
#	64362
#	74095
#	83010
#	95320
#	103772
#	111770
#	121762
#	131585
#	144045
#	153707
#	167025
#	180367
#	190257
#	200752
#	214270
#	225302
#	236392
#	249810
#	260295
#	278390
#	291847
#	302107
#	316947
#
# Disc length: 4395 seconds
#
# Revision: 1
# Processed by: cddbd v1.4PL0 Copyright (c) Steve Scherf et al.
# Submitted via: audiograbber 1.81.02
#
DISCID=7a11291c
DTITLE=Various Artist - Classic Country Volume 3
DYEAR=1900
DGENRE=
TTITLE0=Roy Drusky - Kansas City
TTITLE1=Dave Dudley - Ballad of fourty dollars
TTITLE2=Roger Miller - King of the road
TTITLE3=Jerry Lee Lewis - What's made Milwauke famous
TTITLE4=Roy Drusky - El Paso
TTITLE5=Dave Dudley - Don't fence me in
TTITLE6=Roy Drusky - Ring of fire
TTITLE7=Roy Drusky - Four strong winds
TTITLE8=Roger Miller - Dang me
TTITLE9=Roger Miller - Do wacka do
TTITLE10=George Jones - I walk the line
TTITLE11=Dave Dudley - Truck driving son-of-a-gun
TTITLE12=Tom T. Hall - The year that Claton Delaney dies
TTITLE13=Rusty Draper - When two worlds collide
TTITLE14=Faron Young - San Antonio Rose
TTITLE15=Leroy Van Dyke - The auctioneer
TTITLE16=Dave Dudley - Cowboy boots
TTITLE17=Jerry Lee Lewis - He'll have to go
TTITLE18=Jerry Lee Lewis - Release me
TTITLE19=The Statler Brothers - Flowers on the wall
TTITLE20=The Statler Brothers - Bed of roses
TTITLE21=Faron Young - It's four in the morning
TTITLE22=George Hones - Half as much
TTITLE23=Faron Young - Streets of Laredo
TTITLE24=Faron Young - High noon
TTITLE25=Leroy Van Dyke - Take good care of her
TTITLE26=Dave Dudley - Sixteen Tons
TTITLE27=Carson Robison - Life gets tee-juss don't it
EXTD=
EXTT0=
EXTT1=
EXTT2=
EXTT3=
EXTT4=
EXTT5=
EXTT6=
EXTT7=
EXTT8=
EXTT9=
EXTT10=
EXTT11=
EXTT12=
EXTT13=
EXTT14=
EXTT15=
EXTT16=
EXTT17=
EXTT18=
EXTT19=
EXTT20=
EXTT21=
EXTT22=
EXTT23=
EXTT24=
EXTT25=
EXTT26=
EXTT27=
PLAYORDER=
